<?xml version="1.0" encoding="utf-8"?>
<!-- Generator: Adobe Illustrator 16.0.0, SVG Export Plug-In . SVG Version: 6.00 Build 0)  -->
<!DOCTYPE svg PUBLIC "-//W3C//DTD SVG 1.1//EN" "http://www.w3.org/Graphics/SVG/1.1/DTD/svg11.dtd">
<svg version="1.1" id="Layer_1" xmlns="http://www.w3.org/2000/svg" xmlns:xlink="http://www.w3.org/1999/xlink" x="0px" y="0px"
	 width="43px" height="29px" viewBox="0 0 43 29" enable-background="new 0 0 43 29" xml:space="preserve">
<path fill="#9B9B9B" d="M38.521,0.167H4.479C2.01,0.167,0,2.177,0,4.646v19.708c0,2.47,2.01,4.48,4.479,4.48h34.042
	c2.469,0,4.479-2.011,4.479-4.48V4.646C43,2.177,40.99,0.167,38.521,0.167z M41.209,24.354c0,1.482-1.207,2.688-2.688,2.688H4.479
	c-1.481,0-2.688-1.205-2.688-2.688V4.646c0-1.482,1.206-2.688,2.688-2.688h34.042c1.48,0,2.688,1.206,2.688,2.688V24.354
	L41.209,24.354z"/>
<path fill="#9B9B9B" d="M40.861,4.709H3.144C1.408,4.709,0,5.109,0,5.604C0,6.099,1.408,6.5,3.144,6.5h37.718
	C42.595,6.5,44,6.099,44,5.604C44,5.109,42.595,4.709,40.861,4.709z"/>
<path fill="#9B9B9B" d="M40.861,9.334H3.144C1.408,9.334,0,9.734,0,10.229c0,0.494,1.408,0.896,3.144,0.896h37.718
	c1.734,0,3.139-0.401,3.139-0.896C44,9.734,42.596,9.334,40.861,9.334z"/>
<path fill="#9B9B9B" d="M14.771,17.084H4.021c-0.495,0-0.896,0.4-0.896,0.896c0,0.494,0.401,0.896,0.896,0.896h10.75
	c0.494,0,0.895-0.401,0.895-0.896C15.666,17.484,15.266,17.084,14.771,17.084z"/>
<path fill="#9B9B9B" d="M14.771,20.459H4.021c-0.495,0-0.896,0.4-0.896,0.896c0,0.494,0.401,0.896,0.896,0.896h10.75
	c0.494,0,0.895-0.401,0.895-0.896C15.666,20.859,15.266,20.459,14.771,20.459z"/>
<path fill="#9B9B9B" d="M36.438,14.875h-1.791c-1.482,0-2.688,1.207-2.688,2.688v1.792c0,1.481,1.205,2.688,2.688,2.688h1.791
	c1.482,0,2.688-1.206,2.688-2.688v-1.792C39.125,16.082,37.92,14.875,36.438,14.875z M37.334,19.355
	c0,0.494-0.402,0.896-0.896,0.896h-1.791c-0.495,0-0.896-0.401-0.896-0.896v-1.792c0-0.495,0.401-0.896,0.896-0.896h1.791
	c0.494,0,0.896,0.4,0.896,0.896V19.355z"/>
</svg>
