<?xml version="1.0" encoding="utf-8"?>
<!-- Generator: Adobe Illustrator 16.0.0, SVG Export Plug-In . SVG Version: 6.00 Build 0)  -->
<!DOCTYPE svg PUBLIC "-//W3C//DTD SVG 1.1//EN" "http://www.w3.org/Graphics/SVG/1.1/DTD/svg11.dtd">
<svg version="1.1" id="Layer_1" xmlns="http://www.w3.org/2000/svg" xmlns:xlink="http://www.w3.org/1999/xlink" x="0px" y="0px"
	 width="38px" height="38px" viewBox="0 0 38 38" enable-background="new 0 0 38 38" xml:space="preserve">
<path fill="#9B9B9B" d="M19,38c-5.075,0-9.847-1.977-13.435-5.564C1.976,28.847,0,24.075,0,19S1.977,9.154,5.565,5.565
	S13.925,0,19,0s9.847,1.977,13.436,5.565C36.023,9.153,38,13.925,38,19s-1.977,9.846-5.564,13.436C28.847,36.023,24.075,38,19,38z
	 M19,2.375C9.833,2.375,2.375,9.833,2.375,19S9.833,35.625,19,35.625S35.625,28.167,35.625,19S28.167,2.375,19,2.375z"/>
<path fill="#9B9B9B" d="M19,18.062c-1.637,0-2.969-1.332-2.969-2.969s1.332-2.969,2.969-2.969c1.637,0,2.969,1.332,2.969,2.969
	c0,0.656,0.531,1.188,1.188,1.188s1.188-0.532,1.188-1.188c0-2.538-1.779-4.667-4.156-5.209V8.562c0-0.656-0.531-1.188-1.188-1.188
	c-0.656,0-1.188,0.532-1.188,1.188v1.322c-2.376,0.542-4.156,2.671-4.156,5.209c0,2.946,2.397,5.344,5.344,5.344
	c1.637,0,2.969,1.332,2.969,2.969S20.637,26.375,19,26.375c-1.637,0-2.969-1.332-2.969-2.969c0-0.656-0.532-1.188-1.188-1.188
	s-1.188,0.531-1.188,1.188c0,2.537,1.78,4.668,4.156,5.209v1.322c0,0.656,0.532,1.188,1.188,1.188c0.656,0,1.188-0.531,1.188-1.188
	v-1.322c2.377-0.541,4.156-2.672,4.156-5.209C24.344,20.459,21.947,18.062,19,18.062z"/>
</svg>
